<svg xmlns="http://www.w3.org/2000/svg" width="32" height="32" version="1" id="cinema"><path fill="#e64c65" fill-rule="evenodd" d="M32 16c0 8.824-7.176 16-16.053 16S0 24.824 0 16 7.123 0 16 0c8.877 0 16 7.176 16 16z" clip-rule="evenodd"></path><path fill="#cd244a" d="M17.414 31.852c.593-.055 1.2-.061 1.772-.178a16.04 16.04 0 0 0 8.117-4.365 16.1 16.1 0 0 0 3.437-5.086c.406-.957.72-1.962.934-3.002.117-.57.125-1.175.18-1.766l-8.65-8.65a.326.326 0 0 0-.224-.102c-.107 0-.268.162-.214.27v1.029l-.618-.617c-.001-.002-.004 0-.005-.002a.286.286 0 0 0-.186-.086h-1.615c-.054-.054-.108-.054-.108 0-.072.036-.14.096-.164.164l-.67-.67-.004-.002a.29.29 0 0 0-.185-.086h-6.516c-.161 0-.27.162-.27.27v.955l-.558-.559a.269.269 0 0 0-.195-.072h-1.615c-.054-.054-.108-.054-.108 0a.275.275 0 0 0-.136.172l-.665-.664a.326.326 0 0 0-.222-.102c-.162 0-.269.162-.215.27v14.054c0 .081.027.149.074.196l8.63 8.629z"></path><path fill="#fff" d="M8.926 8.704c-.162 0-.27.161-.215.269v14.054c0 .162.107.27.269.27.161 0 .27-.108.27-.27v-14a.347.347 0 0 0-.324-.323zm3.77 0c-.162 0-.27.161-.27.269v2.154c0 .43.377.807.808.807h5.438c.431 0 .808-.376.808-.807V8.973c0-.162-.161-.27-.269-.27h-6.516zm10.284 0c-.107 0-.269.161-.215.269v14.054c0 .162.108.27.27.27.16 0 .268-.108.268-.27v-14a.347.347 0 0 0-.323-.323zm-13.03.592a.296.296 0 0 0-.162.27v1.615c0 .161.107.269.269.269h1.615c.162 0 .27-.162.27-.27V9.566c0-.161-.108-.27-.27-.27h-1.615c-.054-.053-.108-.053-.108 0zm10.284 0c-.108.054-.215.161-.161.27v1.615c0 .161.107.269.269.269h1.615c.162 0 .27-.162.27-.27V9.566c0-.161-.162-.27-.27-.27h-1.615c-.054-.053-.108-.053-.108 0zM9.95 11.988a.296.296 0 0 0-.161.27v1.615c0 .162.107.27.269.27h1.615c.162 0 .27-.108.27-.27v-1.615c0-.162-.108-.27-.27-.27H9.95zm10.285 0c-.108.054-.215.162-.161.27v1.615c0 .162.107.27.269.27h1.615c.162 0 .27-.108.27-.27v-1.615c0-.162-.162-.27-.27-.27h-1.723zm-6.408.539c-.754 0-1.346.592-1.346 1.346v3.77c0 .753.592 1.346 1.346 1.346h4.308c.754 0 1.346-.593 1.346-1.347v-3.769c0-.754-.592-1.346-1.346-1.346h-4.308zM9.95 14.68a.296.296 0 0 0-.161.269v1.615c0 .162.107.27.269.27h1.615c.162 0 .27-.108.27-.27V14.95c0-.162-.108-.27-.27-.27H9.95zm10.285 0c-.108.054-.215.161-.161.269v1.615c0 .162.107.27.269.27h1.615c.162 0 .27-.108.27-.27V14.95c0-.162-.162-.27-.27-.27h-1.723zM9.95 17.373a.296.296 0 0 0-.161.27v1.615c0 .161.107.269.269.269h1.615c.162 0 .27-.108.27-.27v-1.615c0-.161-.108-.269-.27-.269H9.95zm10.285 0c-.108.054-.215.162-.161.27v1.615c0 .161.107.269.269.269h1.615c.162 0 .27-.108.27-.27v-1.615c0-.161-.162-.269-.27-.269h-1.723zm-6.946 2.154a.828.828 0 0 0-.808.808v2.692c0 .162.162.27.27.27h6.461c.162 0 .27-.162.27-.27v-2.692a.828.828 0 0 0-.809-.808h-5.384zm-3.339.539a.296.296 0 0 0-.161.269v1.615c0 .162.107.27.269.27h1.615c.162 0 .27-.162.27-.27v-1.615c0-.162-.108-.27-.27-.27H9.95zm10.285 0c-.108.053-.215.161-.161.269v1.615c0 .162.107.27.269.27h1.615c.162 0 .27-.162.27-.27v-1.615c0-.162-.162-.27-.27-.27h-1.723z"></path></svg>